<?xml version="1.0" encoding="iso-8859-1"?>
<!-- Generator: Adobe Illustrator 19.0.0, SVG Export Plug-In . SVG Version: 6.00 Build 0)  -->
<svg version="1.1" id="Layer_1" xmlns="http://www.w3.org/2000/svg" xmlns:xlink="http://www.w3.org/1999/xlink" x="0px" y="0px"
	 viewBox="0 0 508 508" style="enable-background:new 0 0 508 508;" xml:space="preserve">
<path style="fill:#AEB1B4;" d="M289.6,87.6H478c1.2,0,0,2.4,0,3.6v264c0,1.2,1.2,0.4,0,0.4h-2H30h-4v-0.4v-262v-2
	c0-1.2,2.8-3.6,4-3.6h192.4c-4-4-6.8-16-7.6-24H36.4C19.6,63.6,6,76.8,6,93.6v282h494c0.8,0,1.6,1.6,2,2.4V93.2
	c0-16.4-13.2-29.6-30.4-29.6H297.2C296.4,71.6,293.6,83.6,289.6,87.6z"/>
<path style="fill:#E8E3E3;" d="M500,379.6H6V394c0,16.8,14,29.6,30.4,29.6h435.2c16.4,0,30.4-12.4,30.4-29.2v-14.8
	C502,380.4,500.8,379.6,500,379.6z M256,411.2c-5.6,0-10-4.4-10-10s4.4-10,10-10s10,4.4,10,10S261.6,411.2,256,411.2z"/>
<g>
	<path style="fill:#CC9999;" d="M288,89.2c-0.4,0-0.8,0-1.2-0.4l-0.4,0.4H288z"/>
	<path style="fill:#CC9999;" d="M225.2,88.8c-0.4,0.4-0.8,0.4-1.2,0.4h1.6C225.2,89.2,225.2,88.8,225.2,88.8z"/>
</g>
<path style="fill:#CDEEF9;" d="M256,105.2c-12,0-22.8-5.6-30.4-13.6H224l-194-4l-4,268h448v-268H288l-1.6,4
	C278.8,99.6,268,105.2,256,105.2z"/>
<g>
	<path style="fill:#CC9999;" d="M24,355.2v2h2C24.8,357.2,24,356.4,24,355.2z"/>
	<path style="fill:#CC9999;" d="M148,487.2v2h2C148.8,489.2,148,488.4,148,487.2z"/>
</g>
<path style="fill:#AEB1B4;" d="M328,471.6c-1.2,0-2.8,0-2.8-1.2c-1.2,0-2.8,0-2.8-1.2v-41.6h-140v41.6c0,1.2,0,1.2-1.2,1.2
	c0,1.2,0,1.2-1.2,1.2h-30v12h204v-12C354,471.6,328,471.6,328,471.6z"/>
<circle style="fill:#E8E3E3;" cx="256" cy="401.2" r="6"/>
<path style="fill:#676767;" d="M256,24c-20.4,0-37.2,16.8-37.2,37.2c0,1.2,0,2.8,0.4,4c0.8,9.6,5.6,18,12.4,24
	c6.4,6,15.2,9.6,24.8,9.6s18-3.6,24.8-9.6s11.2-14.4,12.4-24c0-1.2,0.4-2.4,0.4-4C293.2,40.8,276.4,24,256,24z M256,79.2
	c-8.4,0-15.6-6-17.6-14c-0.4-1.2-0.4-2.4-0.4-4c0-10,8-18,18-18s18,8,18,18c0,1.2,0,2.8-0.4,4C271.6,73.2,264.4,79.2,256,79.2z"/>
<g>
	<path style="fill:#AEB1B4;" d="M256,47.2c-7.6,0-14,6.4-14,14c0,1.2,0.4,2.8,0.8,4c1.6,6,7.2,10,13.2,10c6.4,0,11.6-4.4,13.2-10
		c0.4-1.2,0.8-2.4,0.8-4C270,53.6,263.6,47.2,256,47.2z"/>
	<path style="fill:#AEB1B4;" d="M324,43.6h-30c0,0,0.4,0.4,0.4,0.8c2,4.8,2.8,11.2,2.8,15.2H334v-2C334,49.6,331.6,43.6,324,43.6z"
		/>
	<path style="fill:#AEB1B4;" d="M188,43.6c-7.6,0-18,6.4-18,14V60v-0.4h44.8c0-4,1.2-10.4,2.8-15.2c0-0.4,0-0.8,0.4-0.8H188z"/>
</g>
<path d="M471.6,429.6H36.4c-20,0-36.4-16.4-36.4-36.4V94c0-20,16.4-36.4,36.4-36.4H214c2.4,0,4,1.6,4,4s-1.6,4-4,4H36.4
	C20.8,65.6,8,78.4,8,94v299.2c0,15.6,12.8,28.4,28.4,28.4h435.2c15.6,0,28.4-12.8,28.4-28.4V93.6c0-15.6-12.8-28-28.4-28H298
	c-2.4,0-4-1.6-4-4s1.6-4,4-4h173.6c20,0,36.4,16.4,36.4,36v299.6C508,413.2,491.6,429.6,471.6,429.6z"/>
<path d="M498,381.6H10c-2.4,0-4-1.6-4-4s1.6-4,4-4h488c2.4,0,4,1.6,4,4S500.4,381.6,498,381.6z"/>
<path d="M414,89.6H290c-2.4,0-4-1.6-4-4s1.6-4,4-4h124c2.4,0,4,1.6,4,4S416.4,89.6,414,89.6z"/>
<path d="M476,357.6H28c-2.4,0-4-1.6-4-4v-268c0-2.4,1.6-4,4-4h194c2.4,0,4,1.6,4,4s-1.6,4-4,4H32v260h440v-260h-18c-2.4,0-4-1.6-4-4
	s1.6-4,4-4h22c2.4,0,4,1.6,4,4v268C480,356,478.4,357.6,476,357.6z"/>
<path d="M180,471.6c-2.4,0-4-1.6-4-4v-36c0-2.4,1.6-4,4-4s4,1.6,4,4v36C184,470,182.4,471.6,180,471.6z"/>
<path d="M324,471.6c-2.4,0-4-1.6-4-4v-36c0-2.4,1.6-4,4-4s4,1.6,4,4v36C328,470,326.4,471.6,324,471.6z"/>
<path d="M356,489.6H148c-2.4,0-4-1.6-4-4v-16c0-2.4,1.6-4,4-4h142c2.4,0,4,1.6,4,4s-1.6,4-4,4H152v8h200v-8h-26c-2.4,0-4-1.6-4-4
	s1.6-4,4-4h30c2.4,0,4,1.6,4,4v16C360,488,358.4,489.6,356,489.6z"/>
<path d="M232,154c-1.2,0-2-0.4-2.8-1.2l-62.4-62.4c-1.6-1.6-1.6-4,0-5.6s4-1.6,5.6,0l62.4,62.4c1.6,1.6,1.6,4,0,5.6
	C234,153.6,233.2,154,232,154z"/>
<path d="M292,214c-1.2,0-2-0.4-2.8-1.2l-40-40c-1.6-1.6-1.6-4,0-5.6s4-1.6,5.6,0l40,40c1.6,1.6,1.6,4,0,5.6
	C294,213.6,293.2,214,292,214z"/>
<path d="M328.4,294c-1.2,0-2-0.4-2.8-1.2L209.2,176.4c-1.6-1.6-1.6-4,0-5.6s4-1.6,5.6,0l116.4,116.4c1.6,1.6,1.6,4,0,5.6
	C330.4,293.6,329.2,294,328.4,294z"/>
<path d="M390.8,356.4c-1.2,0-2-0.4-2.8-1.2l-46-46c-1.6-1.6-1.6-4,0-5.6s4-1.6,5.6,0l46,46c1.6,1.6,1.6,4,0,5.6
	C392.8,356,392,356.4,390.8,356.4z"/>
<path d="M256,413.2c-6.8,0-12-5.2-12-12s5.2-12,12-12s12,5.2,12,12S262.4,413.2,256,413.2z M256,397.2c-2.4,0-4,1.6-4,4s1.6,4,4,4
	s4-1.6,4-4S258,397.2,256,397.2z"/>
<path d="M256,104.8c-24,0-43.2-19.6-43.2-43.2s19.6-43.2,43.2-43.2s43.2,19.6,43.2,43.2S280,104.8,256,104.8z M256,26
	c-19.6,0-35.2,16-35.2,35.2s16,35.2,35.2,35.2c19.6,0,35.2-16,35.2-35.2S275.6,26,256,26z"/>
<path d="M256,81.2c-11.2,0-20-8.8-20-20s8.8-20,20-20s20,8.8,20,20S267.2,81.2,256,81.2z M256,49.2c-6.8,0-12,5.2-12,12
	s5.2,12,12,12s12-5.2,12-12S262.8,49.2,256,49.2z"/>
<path d="M252,61.2c-1.2,0-2-0.4-2.8-1.2c-0.8-0.8-1.2-1.6-1.2-2.8c0-1.2,0.4-2,1.2-2.8c1.6-1.6,4-1.6,5.6,0c0.8,0.8,1.2,1.6,1.2,2.8
	c0,1.2-0.4,2-1.2,2.8C254,60.8,253.2,61.2,252,61.2z"/>
<path d="M336,63.6c-2.4,0-4-1.6-4-4v-2c0-12-6-12-8-12h-34c-2.4,0-4-1.6-4-4s1.6-4,4-4h34c10,0,16,7.6,16,20v2
	C340,62,338.4,63.6,336,63.6z"/>
<path d="M168,63.6c-2.4,0-4-1.6-4-4v-2c0-11.2,12.8-20,24-20h30c2.4,0,4,1.6,4,4s-1.6,4-4,4h-30c-7.2,0-16,5.6-16,12v2
	C172,62,170.4,63.6,168,63.6z"/>
<g>
</g>
<g>
</g>
<g>
</g>
<g>
</g>
<g>
</g>
<g>
</g>
<g>
</g>
<g>
</g>
<g>
</g>
<g>
</g>
<g>
</g>
<g>
</g>
<g>
</g>
<g>
</g>
<g>
</g>
</svg>
