<?xml version="1.0" ?><!DOCTYPE svg  PUBLIC '-//W3C//DTD SVG 1.1//EN'  'http://www.w3.org/Graphics/SVG/1.1/DTD/svg11.dtd'><svg width="32px" height="32px" viewBox="0 0 32 32" enable-background="new 0 0 32 32" version="1.1" xml:space="preserve" xmlns="http://www.w3.org/2000/svg" xmlns:xlink="http://www.w3.org/1999/xlink"><g id="Layer_2"/><g id="Layer_3"/><g id="Layer_4"/><g id="Layer_5"/><g id="Layer_6"/><g id="Layer_7"/><g id="Layer_8"/><g id="Layer_9"/><g id="Layer_10"/><g id="Layer_11"/><g id="Layer_12"/><g id="Layer_13"/><g id="Layer_14"/><g id="Layer_15"/><g id="Layer_16"/><g id="Layer_17"/><g id="Layer_18"/><g id="Layer_19"/><g id="Layer_20"/><g id="Layer_21"/><g id="Layer_22"/><g id="Layer_23"><g><path d="M27,24c-0.5527,0-1-0.4478-1-1v-3c0-0.5522,0.4473-1,1-1s1,0.4478,1,1v3C28,23.5522,27.5527,24,27,24z" fill="#4391B2"/></g><g><path d="M23,24c-0.5527,0-1-0.4478-1-1v-3c0-0.5522,0.4473-1,1-1s1,0.4478,1,1v3C24,23.5522,23.5527,24,23,24z" fill="#4391B2"/></g><g><path d="M19,24c-0.5527,0-1-0.4478-1-1v-3c0-0.5522,0.4473-1,1-1s1,0.4478,1,1v3C20,23.5522,19.5527,24,19,24z" fill="#4391B2"/></g><g><path d="M15,24c-0.5527,0-1-0.4478-1-1v-3c0-0.5522,0.4473-1,1-1s1,0.4478,1,1v3C16,23.5522,15.5527,24,15,24z" fill="#4391B2"/></g><g><path d="M9,24c-0.5527,0-1-0.4478-1-1v-3c0-0.5522,0.4473-1,1-1s1,0.4478,1,1v3C10,23.5522,9.5527,24,9,24z" fill="#4391B2"/></g><g><path d="M5,24c-0.5527,0-1-0.4478-1-1v-3c0-0.5522,0.4473-1,1-1s1,0.4478,1,1v3C6,23.5522,5.5527,24,5,24z" fill="#4391B2"/></g><g><path d="M29,14c0,0.55,0.45,1,1,1s1,0.45,1,1v4c0,0.55-0.45,1-1,1H2c-0.55,0-1-0.45-1-1v-4c0-0.55,0.45-1,1-1    s1-0.45,1-1s-0.45-1-1-1s-1-0.45-1-1V9c0-0.55,0.45-1,1-1h28c0.55,0,1,0.45,1,1v3c0,0.55-0.45,1-1,1S29,13.45,29,14z" fill="#48B1DD"/></g><g><path d="M12,12v5c0,0.55-0.45,1-1,1H7c-0.55,0-1-0.45-1-1v-5c0-0.55,0.45-1,1-1h4C11.55,11,12,11.45,12,12z" fill="#96CEE5"/></g><g><path d="M26,12v5c0,0.55-0.45,1-1,1H14c-0.55,0-1-0.45-1-1v-5c0-0.55,0.45-1,1-1h11C25.55,11,26,11.45,26,12z" fill="#96CEE5"/></g></g><g id="Layer_24"/><g id="Layer_25"/><g id="Layer_26"/><g id="Layer_27"/><g id="Layer_28"/><g id="Layer_29"/><g id="Layer_30"/><g id="Layer_31"/></svg>